999
"DXF R12 Output" (www.mydxf.blogspot.com)
 0 
SECTION
 2 
HEADER
 9 
$ACADVER
 1 
AC1009
 9 
$EXTMIN
 10 
 0 
 20 
 0 
 9 
$EXTMAX
 10 
 8.5 
 20 
 11 
 0 
ENDSEC
 0 
SECTION
 2 
ENTITIES
0
POLYLINE
8
Layer 1
62
7
70
0
10
0.000000
20
0.000000
66
1
0
VERTEX
8
Layer 1
10
107.305670
20
103.626580
70
0
0
VERTEX
8
Layer 1
10
106.854650
20
104.430500
70
0
0
VERTEX
8
Layer 1
10
108.286337
20
106.551455
70
0
0
VERTEX
8
Layer 1
10
111.508053
20
110.884909
70
0
0
VERTEX
8
Layer 1
10
114.909779
20
115.303441
70
0
0
VERTEX
8
Layer 1
10
116.881500
20
117.679630
70
0
0
VERTEX
8
Layer 1
10
117.512220
20
118.245380
70
0
0
VERTEX
8
Layer 1
10
117.512220
20
126.550340
70
0
0
VERTEX
8
Layer 1
10
117.463851
20
133.463730
70
0
0
VERTEX
8
Layer 1
10
117.378169
20
134.657284
70
0
0
VERTEX
8
Layer 1
10
117.229070
20
135.012370
70
0
0
VERTEX
8
Layer 1
10
115.438242
20
137.165877
70
0
0
VERTEX
8
Layer 1
10
111.943610
20
141.691851
70
0
0
VERTEX
8
Layer 1
10
108.508573
20
146.272840
70
0
0
VERTEX
8
Layer 1
10
106.896530
20
148.591390
70
0
0
VERTEX
8
Layer 1
10
104.639922
20
151.859025
70
0
0
VERTEX
8
Layer 1
10
99.409994
20
158.996000
70
0
0
VERTEX
8
Layer 1
10
92.062673
20
168.888420
70
0
0
VERTEX
8
Layer 1
10
90.317036
20
168.985520
70
0
0
VERTEX
8
Layer 1
10
87.970693
20
169.312406
70
0
0
VERTEX
8
Layer 1
10
86.222663
20
169.978424
70
0
0
VERTEX
8
Layer 1
10
85.591206
20
170.428117
70
0
0
VERTEX
8
Layer 1
10
85.131156
20
170.950005
70
0
0
VERTEX
8
Layer 1
10
84.849791
20
171.539891
70
0
0
VERTEX
8
Layer 1
10
84.754385
20
172.193580
70
0
0
VERTEX
8
Layer 1
10
84.941139
20
173.097581
70
0
0
VERTEX
8
Layer 1
10
85.503052
20
173.870530
70
0
0
VERTEX
8
Layer 1
10
86.442603
20
174.514764
70
0
0
VERTEX
8
Layer 1
10
87.762267
20
175.032620
70
0
0
VERTEX
8
Layer 1
10
88.974711
20
175.283577
70
0
0
VERTEX
8
Layer 1
10
90.449678
20
175.426417
70
0
0
VERTEX
8
Layer 1
10
91.931667
20
175.447019
70
0
0
VERTEX
8
Layer 1
10
93.165180
20
175.331260
70
0
0
VERTEX
8
Layer 1
10
94.341702
20
175.014299
70
0
0
VERTEX
8
Layer 1
10
95.466504
20
174.539226
70
0
0
VERTEX
8
Layer 1
10
96.385661
20
173.983658
70
0
0
VERTEX
8
Layer 1
10
96.945243
20
173.425210
70
0
0
VERTEX
8
Layer 1
10
97.272798
20
172.504427
70
0
0
VERTEX
8
Layer 1
10
97.202134
20
171.567828
70
0
0
VERTEX
8
Layer 1
10
96.766423
20
170.731552
70
0
0
VERTEX
8
Layer 1
10
95.998838
20
170.111740
70
0
0
VERTEX
8
Layer 1
10
95.462071
20
169.697200
70
0
0
VERTEX
8
Layer 1
10
102.770080
20
159.729220
70
0
0
VERTEX
8
Layer 1
10
110.078090
20
149.900640
70
0
0
VERTEX
8
Layer 1
10
118.013910
20
149.853140
70
0
0
VERTEX
8
Layer 1
10
125.949740
20
149.805640
70
0
0
VERTEX
8
Layer 1
10
126.592270
20
149.033440
70
0
0
VERTEX
8
Layer 1
10
131.346800
20
142.887840
70
0
0
VERTEX
8
Layer 1
10
135.458820
20
137.514450
70
0
0
VERTEX
8
Layer 1
10
162.421400
20
137.468350
70
0
0
VERTEX
8
Layer 1
10
184.870620
20
137.476335
70
0
0
VERTEX
8
Layer 1
10
188.646784
20
137.552815
70
0
0
VERTEX
8
Layer 1
10
189.660220
20
137.696030
70
0
0
VERTEX
8
Layer 1
10
190.336770
20
137.966850
70
0
0
VERTEX
8
Layer 1
10
200.653480
20
132.730070
70
0
0
VERTEX
8
Layer 1
10
206.873311
20
129.424221
70
0
0
VERTEX
8
Layer 1
10
210.014619
20
127.613119
70
0
0
VERTEX
8
Layer 1
10
210.719530
20
127.076403
70
0
0
VERTEX
8
Layer 1
10
211.001257
20
126.683340
70
0
0
VERTEX
8
Layer 1
10
210.975279
20
126.357252
70
0
0
VERTEX
8
Layer 1
10
210.757080
20
126.021460
70
0
0
VERTEX
8
Layer 1
10
207.464472
20
124.048262
70
0
0
VERTEX
8
Layer 1
10
200.659176
20
120.367701
70
0
0
VERTEX
8
Layer 1
10
193.800100
20
116.811612
70
0
0
VERTEX
8
Layer 1
10
190.346150
20
115.211830
70
0
0
VERTEX
8
Layer 1
10
189.873077
20
115.284554
70
0
0
VERTEX
8
Layer 1
10
189.542700
20
115.474480
70
0
0
VERTEX
8
Layer 1
10
188.550511
20
115.618670
70
0
0
VERTEX
8
Layer 1
10
184.788997
20
115.701311
70
0
0
VERTEX
8
Layer 1
10
162.435540
20
115.747700
70
0
0
VERTEX
8
Layer 1
10
135.557130
20
115.747700
70
0
0
VERTEX
8
Layer 1
10
130.898770
20
109.657120
70
0
0
VERTEX
8
Layer 1
10
127.484810
20
105.298795
70
0
0
VERTEX
8
Layer 1
10
125.818320
20
103.372990
70
0
0
VERTEX
8
Layer 1
10
123.282251
20
103.228157
70
0
0
VERTEX
8
Layer 1
10
116.576460
20
103.179430
70
0
0
VERTEX
8
Layer 1
10
107.756700
20
103.179430
70
0
0
VERTEX
8
Layer 1
10
107.305670
20
103.626580
70
0
0
SEQEND
8
Layer 1
0
POLYLINE
8
Layer 1
62
7
70
0
10
0.000000
20
0.000000
66
1
0
VERTEX
8
Layer 1
10
128.537290
20
110.488770
70
0
0
VERTEX
8
Layer 1
10
132.366170
20
115.585110
70
0
0
VERTEX
8
Layer 1
10
130.448171
20
115.692906
70
0
0
VERTEX
8
Layer 1
10
125.307670
20
115.704380
70
0
0
VERTEX
8
Layer 1
10
118.187200
20
115.656680
70
0
0
VERTEX
8
Layer 1
10
114.537760
20
110.920810
70
0
0
VERTEX
8
Layer 1
10
110.702530
20
105.866180
70
0
0
VERTEX
8
Layer 1
10
110.765632
20
105.689397
70
0
0
VERTEX
8
Layer 1
10
111.580938
20
105.594676
70
0
0
VERTEX
8
Layer 1
10
117.643570
20
105.553400
70
0
0
VERTEX
8
Layer 1
10
124.770390
20
105.559400
70
0
0
VERTEX
8
Layer 1
10
128.537290
20
110.488770
70
0
0
SEQEND
8
Layer 1
0
POLYLINE
8
Layer 1
62
7
70
0
10
0.000000
20
0.000000
66
1
0
VERTEX
8
Layer 1
10
189.175200
20
126.585620
70
0
0
VERTEX
8
Layer 1
10
189.175200
20
135.055540
70
0
0
VERTEX
8
Layer 1
10
165.792860
20
135.055380
70
0
0
VERTEX
8
Layer 1
10
131.247620
20
134.934440
70
0
0
VERTEX
8
Layer 1
10
120.084740
20
134.813670
70
0
0
VERTEX
8
Layer 1
10
120.084740
20
126.464680
70
0
0
VERTEX
8
Layer 1
10
120.084740
20
118.115700
70
0
0
VERTEX
8
Layer 1
10
154.629970
20
118.115700
70
0
0
VERTEX
8
Layer 1
10
189.175200
20
118.115700
70
0
0
VERTEX
8
Layer 1
10
189.175200
20
126.585620
70
0
0
SEQEND
8
Layer 1
0
POLYLINE
8
Layer 1
62
7
70
0
10
0.000000
20
0.000000
66
1
0
VERTEX
8
Layer 1
10
141.461980
20
123.045620
70
0
0
VERTEX
8
Layer 1
10
140.998102
20
123.438582
70
0
0
VERTEX
8
Layer 1
10
140.916916
20
123.982606
70
0
0
VERTEX
8
Layer 1
10
141.180605
20
124.464997
70
0
0
VERTEX
8
Layer 1
10
141.751350
20
124.673060
70
0
0
VERTEX
8
Layer 1
10
142.176777
20
124.604707
70
0
0
VERTEX
8
Layer 1
10
142.474631
20
124.406061
70
0
0
VERTEX
8
Layer 1
10
142.636378
20
124.086742
70
0
0
VERTEX
8
Layer 1
10
142.653480
20
123.656370
70
0
0
VERTEX
8
Layer 1
10
142.522935
20
123.292527
70
0
0
VERTEX
8
Layer 1
10
142.256844
20
123.057152
70
0
0
VERTEX
8
Layer 1
10
141.891195
20
122.968700
70
0
0
VERTEX
8
Layer 1
10
141.461980
20
123.045620
70
0
0
VERTEX
8
Layer 1
10
141.461980
20
123.045620
70
0
0
SEQEND
8
Layer 1
0
POLYLINE
8
Layer 1
62
7
70
0
10
0.000000
20
0.000000
66
1
0
VERTEX
8
Layer 1
10
133.314830
20
126.585620
70
0
0
VERTEX
8
Layer 1
10
133.314830
20
130.137520
70
0
0
VERTEX
8
Layer 1
10
134.204340
20
130.137520
70
0
0
VERTEX
8
Layer 1
10
135.093860
20
130.137520
70
0
0
VERTEX
8
Layer 1
10
135.327250
20
129.090170
70
0
0
VERTEX
8
Layer 1
10
135.560700
20
128.160653
70
0
0
VERTEX
8
Layer 1
10
135.746347
20
127.819220
70
0
0
VERTEX
8
Layer 1
10
135.933318
20
128.051477
70
0
0
VERTEX
8
Layer 1
10
136.170740
20
128.843030
70
0
0
VERTEX
8
Layer 1
10
136.509440
20
130.137520
70
0
0
VERTEX
8
Layer 1
10
137.392770
20
130.137520
70
0
0
VERTEX
8
Layer 1
10
138.276110
20
130.137520
70
0
0
VERTEX
8
Layer 1
10
138.276110
20
126.585620
70
0
0
VERTEX
8
Layer 1
10
138.276110
20
123.033720
70
0
0
VERTEX
8
Layer 1
10
137.632980
20
123.033720
70
0
0
VERTEX
8
Layer 1
10
136.989850
20
123.033720
70
0
0
VERTEX
8
Layer 1
10
136.971550
20
125.538260
70
0
0
VERTEX
8
Layer 1
10
136.953250
20
128.042810
70
0
0
VERTEX
8
Layer 1
10
136.532740
20
126.767770
70
0
0
VERTEX
8
Layer 1
10
136.128071
20
125.769361
70
0
0
VERTEX
8
Layer 1
10
135.761660
20
125.439390
70
0
0
VERTEX
8
Layer 1
10
135.569597
20
125.464149
70
0
0
VERTEX
8
Layer 1
10
135.409500
20
125.645041
70
0
0
VERTEX
8
Layer 1
10
135.052060
20
126.714430
70
0
0
VERTEX
8
Layer 1
10
134.693030
20
128.042810
70
0
0
VERTEX
8
Layer 1
10
134.641930
20
125.538260
70
0
0
VERTEX
8
Layer 1
10
134.590830
20
123.033720
70
0
0
VERTEX
8
Layer 1
10
133.952890
20
123.033720
70
0
0
VERTEX
8
Layer 1
10
133.314950
20
123.033720
70
0
0
VERTEX
8
Layer 1
10
133.314830
20
126.585620
70
0
0
SEQEND
8
Layer 1
0
POLYLINE
8
Layer 1
62
7
70
0
10
0.000000
20
0.000000
66
1
0
VERTEX
8
Layer 1
10
145.809910
20
123.580160
70
0
0
VERTEX
8
Layer 1
10
145.909426
20
124.042040
70
0
0
VERTEX
8
Layer 1
10
146.453040
20
124.126610
70
0
0
VERTEX
8
Layer 1
10
147.096170
20
124.126610
70
0
0
VERTEX
8
Layer 1
10
147.096170
20
126.585620
70
0
0
VERTEX
8
Layer 1
10
147.096170
20
129.044630
70
0
0
VERTEX
8
Layer 1
10
146.453040
20
129.044630
70
0
0
VERTEX
8
Layer 1
10
145.909441
20
129.129211
70
0
0
VERTEX
8
Layer 1
10
145.809910
20
129.591080
70
0
0
VERTEX
8
Layer 1
10
145.809910
20
130.137520
70
0
0
VERTEX
8
Layer 1
10
147.831170
20
130.137520
70
0
0
VERTEX
8
Layer 1
10
149.852440
20
130.137520
70
0
0
VERTEX
8
Layer 1
10
149.852440
20
129.591080
70
0
0
VERTEX
8
Layer 1
10
149.752886
20
129.129200
70
0
0
VERTEX
8
Layer 1
10
149.209310
20
129.044630
70
0
0
VERTEX
8
Layer 1
10
148.566180
20
129.044630
70
0
0
VERTEX
8
Layer 1
10
148.566180
20
126.585620
70
0
0
VERTEX
8
Layer 1
10
148.566180
20
124.126610
70
0
0
VERTEX
8
Layer 1
10
149.209310
20
124.126610
70
0
0
VERTEX
8
Layer 1
10
149.752905
20
124.042029
70
0
0
VERTEX
8
Layer 1
10
149.852440
20
123.580160
70
0
0
VERTEX
8
Layer 1
10
149.852440
20
123.033720
70
0
0
VERTEX
8
Layer 1
10
147.831170
20
123.033720
70
0
0
VERTEX
8
Layer 1
10
145.809910
20
123.033720
70
0
0
VERTEX
8
Layer 1
10
145.809910
20
123.580160
70
0
0
SEQEND
8
Layer 1
0
POLYLINE
8
Layer 1
62
7
70
0
10
0.000000
20
0.000000
66
1
0
VERTEX
8
Layer 1
10
153.196710
20
123.252300
70
0
0
VERTEX
8
Layer 1
10
152.976210
20
123.853390
70
0
0
VERTEX
8
Layer 1
10
153.218910
20
124.456534
70
0
0
VERTEX
8
Layer 1
10
153.894960
20
124.673060
70
0
0
VERTEX
8
Layer 1
10
154.571019
20
124.456534
70
0
0
VERTEX
8
Layer 1
10
154.813720
20
123.853390
70
0
0
VERTEX
8
Layer 1
10
154.571019
20
123.250246
70
0
0
VERTEX
8
Layer 1
10
153.894960
20
123.033720
70
0
0
VERTEX
8
Layer 1
10
153.196710
20
123.252300
70
0
0
VERTEX
8
Layer 1
10
153.196710
20
123.252300
70
0
0
SEQEND
8
Layer 1
0
POLYLINE
8
Layer 1
62
7
70
0
10
0.000000
20
0.000000
66
1
0
VERTEX
8
Layer 1
10
158.749380
20
123.210200
70
0
0
VERTEX
8
Layer 1
10
157.871306
20
123.958147
70
0
0
VERTEX
8
Layer 1
10
157.525542
20
124.459130
70
0
0
VERTEX
8
Layer 1
10
157.386240
20
124.869190
70
0
0
VERTEX
8
Layer 1
10
157.509654
20
125.146877
70
0
0
VERTEX
8
Layer 1
10
157.983430
20
125.218360
70
0
0
VERTEX
8
Layer 1
10
158.518210
20
125.108999
70
0
0
VERTEX
8
Layer 1
10
158.878780
20
124.697590
70
0
0
VERTEX
8
Layer 1
10
159.446933
20
124.194500
70
0
0
VERTEX
8
Layer 1
10
160.192493
20
124.056304
70
0
0
VERTEX
8
Layer 1
10
160.864796
20
124.269706
70
0
0
VERTEX
8
Layer 1
10
161.213180
20
124.821410
70
0
0
VERTEX
8
Layer 1
10
161.199702
20
125.211263
70
0
0
VERTEX
8
Layer 1
10
160.992916
20
125.522879
70
0
0
VERTEX
8
Layer 1
10
159.769910
20
126.117480
70
0
0
VERTEX
8
Layer 1
10
158.821666
20
126.519291
70
0
0
VERTEX
8
Layer 1
10
158.185343
20
126.947044
70
0
0
VERTEX
8
Layer 1
10
157.805576
20
127.451535
70
0
0
VERTEX
8
Layer 1
10
157.627000
20
128.083560
70
0
0
VERTEX
8
Layer 1
10
157.639571
20
128.827462
70
0
0
VERTEX
8
Layer 1
10
158.143670
20
129.466620
70
0
0
VERTEX
8
Layer 1
10
159.082575
20
130.068710
70
0
0
VERTEX
8
Layer 1
10
160.154119
20
130.254854
70
0
0
VERTEX
8
Layer 1
10
161.199140
20
130.028106
70
0
0
VERTEX
8
Layer 1
10
162.058480
20
129.391520
70
0
0
VERTEX
8
Layer 1
10
162.434271
20
128.854311
70
0
0
VERTEX
8
Layer 1
10
162.534034
20
128.459860
70
0
0
VERTEX
8
Layer 1
10
162.358792
20
128.216834
70
0
0
VERTEX
8
Layer 1
10
161.909570
20
128.133900
70
0
0
VERTEX
8
Layer 1
10
161.403094
20
128.213175
70
0
0
VERTEX
8
Layer 1
10
161.192350
20
128.496000
70
0
0
VERTEX
8
Layer 1
10
160.809795
20
128.964767
70
0
0
VERTEX
8
Layer 1
10
160.151119
20
129.138099
70
0
0
VERTEX
8
Layer 1
10
159.464008
20
129.008031
70
0
0
VERTEX
8
Layer 1
10
158.996150
20
128.566600
70
0
0
VERTEX
8
Layer 1
10
158.921975
20
128.148140
70
0
0
VERTEX
8
Layer 1
10
159.127491
20
127.784072
70
0
0
VERTEX
8
Layer 1
10
159.631712
20
127.455851
70
0
0
VERTEX
8
Layer 1
10
160.453650
20
127.144930
70
0
0
VERTEX
8
Layer 1
10
161.233985
20
126.818878
70
0
0
VERTEX
8
Layer 1
10
161.876211
20
126.387489
70
0
0
VERTEX
8
Layer 1
10
162.335402
20
125.888703
70
0
0
VERTEX
8
Layer 1
10
162.566630
20
125.360460
70
0
0
VERTEX
8
Layer 1
10
162.587068
20
124.785310
70
0
0
VERTEX
8
Layer 1
10
162.442701
20
124.232121
70
0
0
VERTEX
8
Layer 1
10
162.154457
20
123.750927
70
0
0
VERTEX
8
Layer 1
10
161.743260
20
123.391760
70
0
0
VERTEX
8
Layer 1
10
161.115459
20
123.162684
70
0
0
VERTEX
8
Layer 1
10
160.287971
20
123.048832
70
0
0
VERTEX
8
Layer 1
10
159.439658
20
123.061052
70
0
0
VERTEX
8
Layer 1
10
158.749380
20
123.210190
70
0
0
VERTEX
8
Layer 1
10
158.749380
20
123.210200
70
0
0
SEQEND
8
Layer 1
0
POLYLINE
8
Layer 1
62
7
70
0
10
0.000000
20
0.000000
66
1
0
VERTEX
8
Layer 1
10
165.324290
20
123.252300
70
0
0
VERTEX
8
Layer 1
10
165.103790
20
123.853390
70
0
0
VERTEX
8
Layer 1
10
165.346491
20
124.456534
70
0
0
VERTEX
8
Layer 1
10
166.022550
20
124.673060
70
0
0
VERTEX
8
Layer 1
10
166.698600
20
124.456534
70
0
0
VERTEX
8
Layer 1
10
166.941300
20
123.853390
70
0
0
VERTEX
8
Layer 1
10
166.698600
20
123.250246
70
0
0
VERTEX
8
Layer 1
10
166.022550
20
123.033720
70
0
0
VERTEX
8
Layer 1
10
165.324290
20
123.252300
70
0
0
VERTEX
8
Layer 1
10
165.324290
20
123.252300
70
0
0
SEQEND
8
Layer 1
0
POLYLINE
8
Layer 1
62
7
70
0
10
0.000000
20
0.000000
66
1
0
VERTEX
8
Layer 1
10
169.697570
20
126.585620
70
0
0
VERTEX
8
Layer 1
10
169.697570
20
130.137520
70
0
0
VERTEX
8
Layer 1
10
170.432580
20
130.137520
70
0
0
VERTEX
8
Layer 1
10
171.167580
20
130.137520
70
0
0
VERTEX
8
Layer 1
10
171.167580
20
127.132070
70
0
0
VERTEX
8
Layer 1
10
171.167580
20
124.126610
70
0
0
VERTEX
8
Layer 1
10
172.821340
20
124.126610
70
0
0
VERTEX
8
Layer 1
10
174.475100
20
124.126610
70
0
0
VERTEX
8
Layer 1
10
174.475100
20
123.580160
70
0
0
VERTEX
8
Layer 1
10
174.475100
20
123.033720
70
0
0
VERTEX
8
Layer 1
10
172.086340
20
123.033720
70
0
0
VERTEX
8
Layer 1
10
169.697570
20
123.033720
70
0
0
VERTEX
8
Layer 1
10
169.697570
20
126.585620
70
0
0
SEQEND
8
Layer 1
0
POLYLINE
8
Layer 1
62
7
70
0
10
0.000000
20
0.000000
66
1
0
VERTEX
8
Layer 1
10
200.528180
20
123.031950
70
0
0
VERTEX
8
Layer 1
10
207.143230
20
126.585240
70
0
0
VERTEX
8
Layer 1
10
191.865050
20
134.615690
70
0
0
VERTEX
8
Layer 1
10
191.701484
20
134.453637
70
0
0
VERTEX
8
Layer 1
10
191.610935
20
133.428302
70
0
0
VERTEX
8
Layer 1
10
191.563970
20
126.498360
70
0
0
VERTEX
8
Layer 1
10
191.563970
20
118.266490
70
0
0
VERTEX
8
Layer 1
10
192.712410
20
118.893860
70
0
0
VERTEX
8
Layer 1
10
200.528180
20
123.031950
70
0
0
VERTEX
8
Layer 1
10
200.528180
20
123.031950
70
0
0
SEQEND
8
Layer 1
0
POLYLINE
8
Layer 1
62
7
70
0
10
0.000000
20
0.000000
66
1
0
VERTEX
8
Layer 1
10
132.396070
20
137.510640
70
0
0
VERTEX
8
Layer 1
10
128.618690
20
142.519740
70
0
0
VERTEX
8
Layer 1
10
124.841310
20
147.441660
70
0
0
VERTEX
8
Layer 1
10
118.409650
20
147.441660
70
0
0
VERTEX
8
Layer 1
10
113.310660
20
147.395462
70
0
0
VERTEX
8
Layer 1
10
112.335890
20
147.325653
70
0
0
VERTEX
8
Layer 1
10
112.114430
20
147.213980
70
0
0
VERTEX
8
Layer 1
10
118.098640
20
139.108350
70
0
0
VERTEX
8
Layer 1
10
119.352730
20
137.423480
70
0
0
VERTEX
8
Layer 1
10
125.874400
20
137.423480
70
0
0
VERTEX
8
Layer 1
10
132.396070
20
137.510680
70
0
0
VERTEX
8
Layer 1
10
132.396070
20
137.510640
70
0
0
SEQEND
8
Layer 1
0
POLYLINE
8
Layer 1
62
7
70
0
10
0.000000
20
0.000000
66
1
0
VERTEX
8
Layer 1
10
94.054182
20
171.727820
70
0
0
VERTEX
8
Layer 1
10
94.523604
20
171.985990
70
0
0
VERTEX
8
Layer 1
10
94.654018
20
172.227694
70
0
0
VERTEX
8
Layer 1
10
94.443429
20
172.464843
70
0
0
VERTEX
8
Layer 1
10
93.889843
20
172.709350
70
0
0
VERTEX
8
Layer 1
10
92.339012
20
173.019112
70
0
0
VERTEX
8
Layer 1
10
90.506587
20
173.071305
70
0
0
VERTEX
8
Layer 1
10
88.791495
20
172.881413
70
0
0
VERTEX
8
Layer 1
10
87.592663
20
172.464920
70
0
0
VERTEX
8
Layer 1
10
87.251151
20
172.182829
70
0
0
VERTEX
8
Layer 1
10
87.486516
20
171.971770
70
0
0
VERTEX
8
Layer 1
10
88.844059
20
171.546452
70
0
0
VERTEX
8
Layer 1
10
90.703259
20
171.352429
70
0
0
VERTEX
8
Layer 1
10
92.596003
20
171.407089
70
0
0
VERTEX
8
Layer 1
10
94.054182
20
171.727820
70
0
0
VERTEX
8
Layer 1
10
94.054182
20
171.727820
70
0
0
SEQEND
8
Layer 1
0
POLYLINE
8
Layer 1
62
7
70
0
10
0.000000
20
0.000000
66
1
0
VERTEX
8
Layer 1
10
107.305670
20
103.626580
70
0
0
VERTEX
8
Layer 1
10
106.854650
20
104.430500
70
0
0
VERTEX
8
Layer 1
10
108.286337
20
106.551455
70
0
0
VERTEX
8
Layer 1
10
111.508053
20
110.884909
70
0
0
VERTEX
8
Layer 1
10
114.909779
20
115.303441
70
0
0
VERTEX
8
Layer 1
10
116.881500
20
117.679630
70
0
0
VERTEX
8
Layer 1
10
117.512220
20
118.245380
70
0
0
VERTEX
8
Layer 1
10
117.512220
20
126.550340
70
0
0
VERTEX
8
Layer 1
10
117.463851
20
133.463730
70
0
0
VERTEX
8
Layer 1
10
117.378169
20
134.657284
70
0
0
VERTEX
8
Layer 1
10
117.229070
20
135.012370
70
0
0
VERTEX
8
Layer 1
10
115.438242
20
137.165877
70
0
0
VERTEX
8
Layer 1
10
111.943610
20
141.691851
70
0
0
VERTEX
8
Layer 1
10
108.508573
20
146.272840
70
0
0
VERTEX
8
Layer 1
10
106.896530
20
148.591390
70
0
0
VERTEX
8
Layer 1
10
104.639922
20
151.859025
70
0
0
VERTEX
8
Layer 1
10
99.409994
20
158.996000
70
0
0
VERTEX
8
Layer 1
10
92.062673
20
168.888420
70
0
0
VERTEX
8
Layer 1
10
90.317036
20
168.985520
70
0
0
VERTEX
8
Layer 1
10
87.970693
20
169.312406
70
0
0
VERTEX
8
Layer 1
10
86.222663
20
169.978424
70
0
0
VERTEX
8
Layer 1
10
85.591206
20
170.428117
70
0
0
VERTEX
8
Layer 1
10
85.131156
20
170.950005
70
0
0
VERTEX
8
Layer 1
10
84.849791
20
171.539891
70
0
0
VERTEX
8
Layer 1
10
84.754385
20
172.193580
70
0
0
VERTEX
8
Layer 1
10
84.941139
20
173.097581
70
0
0
VERTEX
8
Layer 1
10
85.503052
20
173.870530
70
0
0
VERTEX
8
Layer 1
10
86.442603
20
174.514764
70
0
0
VERTEX
8
Layer 1
10
87.762267
20
175.032620
70
0
0
VERTEX
8
Layer 1
10
88.974711
20
175.283577
70
0
0
VERTEX
8
Layer 1
10
90.449678
20
175.426417
70
0
0
VERTEX
8
Layer 1
10
91.931667
20
175.447019
70
0
0
VERTEX
8
Layer 1
10
93.165180
20
175.331260
70
0
0
VERTEX
8
Layer 1
10
94.341702
20
175.014299
70
0
0
VERTEX
8
Layer 1
10
95.466504
20
174.539226
70
0
0
VERTEX
8
Layer 1
10
96.385661
20
173.983658
70
0
0
VERTEX
8
Layer 1
10
96.945243
20
173.425210
70
0
0
VERTEX
8
Layer 1
10
97.272798
20
172.504427
70
0
0
VERTEX
8
Layer 1
10
97.202134
20
171.567828
70
0
0
VERTEX
8
Layer 1
10
96.766423
20
170.731552
70
0
0
VERTEX
8
Layer 1
10
95.998838
20
170.111740
70
0
0
VERTEX
8
Layer 1
10
95.462071
20
169.697200
70
0
0
VERTEX
8
Layer 1
10
102.770080
20
159.729220
70
0
0
VERTEX
8
Layer 1
10
110.078090
20
149.900640
70
0
0
VERTEX
8
Layer 1
10
118.013910
20
149.853140
70
0
0
VERTEX
8
Layer 1
10
125.949740
20
149.805640
70
0
0
VERTEX
8
Layer 1
10
126.592270
20
149.033440
70
0
0
VERTEX
8
Layer 1
10
131.346800
20
142.887840
70
0
0
VERTEX
8
Layer 1
10
135.458820
20
137.514450
70
0
0
VERTEX
8
Layer 1
10
162.421400
20
137.468350
70
0
0
VERTEX
8
Layer 1
10
184.870620
20
137.476335
70
0
0
VERTEX
8
Layer 1
10
188.646784
20
137.552815
70
0
0
VERTEX
8
Layer 1
10
189.660220
20
137.696030
70
0
0
VERTEX
8
Layer 1
10
190.336770
20
137.966850
70
0
0
VERTEX
8
Layer 1
10
200.653480
20
132.730070
70
0
0
VERTEX
8
Layer 1
10
206.873311
20
129.424221
70
0
0
VERTEX
8
Layer 1
10
210.014619
20
127.613119
70
0
0
VERTEX
8
Layer 1
10
210.719530
20
127.076403
70
0
0
VERTEX
8
Layer 1
10
211.001257
20
126.683340
70
0
0
VERTEX
8
Layer 1
10
210.975279
20
126.357252
70
0
0
VERTEX
8
Layer 1
10
210.757080
20
126.021460
70
0
0
VERTEX
8
Layer 1
10
207.464472
20
124.048262
70
0
0
VERTEX
8
Layer 1
10
200.659176
20
120.367701
70
0
0
VERTEX
8
Layer 1
10
193.800100
20
116.811612
70
0
0
VERTEX
8
Layer 1
10
190.346150
20
115.211830
70
0
0
VERTEX
8
Layer 1
10
189.873077
20
115.284554
70
0
0
VERTEX
8
Layer 1
10
189.542700
20
115.474480
70
0
0
VERTEX
8
Layer 1
10
188.550511
20
115.618670
70
0
0
VERTEX
8
Layer 1
10
184.788997
20
115.701311
70
0
0
VERTEX
8
Layer 1
10
162.435540
20
115.747700
70
0
0
VERTEX
8
Layer 1
10
135.557130
20
115.747700
70
0
0
VERTEX
8
Layer 1
10
130.898770
20
109.657120
70
0
0
VERTEX
8
Layer 1
10
127.484810
20
105.298795
70
0
0
VERTEX
8
Layer 1
10
125.818320
20
103.372990
70
0
0
VERTEX
8
Layer 1
10
123.282251
20
103.228157
70
0
0
VERTEX
8
Layer 1
10
116.576460
20
103.179430
70
0
0
VERTEX
8
Layer 1
10
107.756700
20
103.179430
70
0
0
VERTEX
8
Layer 1
10
107.305670
20
103.626580
70
0
0
SEQEND
8
Layer 1
0
POLYLINE
8
Layer 1
62
7
70
0
10
0.000000
20
0.000000
66
1
0
VERTEX
8
Layer 1
10
128.537290
20
110.488770
70
0
0
VERTEX
8
Layer 1
10
132.366170
20
115.585110
70
0
0
VERTEX
8
Layer 1
10
130.448171
20
115.692906
70
0
0
VERTEX
8
Layer 1
10
125.307670
20
115.704380
70
0
0
VERTEX
8
Layer 1
10
118.187200
20
115.656680
70
0
0
VERTEX
8
Layer 1
10
114.537760
20
110.920810
70
0
0
VERTEX
8
Layer 1
10
110.702530
20
105.866180
70
0
0
VERTEX
8
Layer 1
10
110.765632
20
105.689397
70
0
0
VERTEX
8
Layer 1
10
111.580938
20
105.594676
70
0
0
VERTEX
8
Layer 1
10
117.643570
20
105.553400
70
0
0
VERTEX
8
Layer 1
10
124.770390
20
105.559400
70
0
0
VERTEX
8
Layer 1
10
128.537290
20
110.488770
70
0
0
SEQEND
8
Layer 1
0
POLYLINE
8
Layer 1
62
7
70
0
10
0.000000
20
0.000000
66
1
0
VERTEX
8
Layer 1
10
189.175200
20
126.585620
70
0
0
VERTEX
8
Layer 1
10
189.175200
20
135.055540
70
0
0
VERTEX
8
Layer 1
10
165.792860
20
135.055380
70
0
0
VERTEX
8
Layer 1
10
131.247620
20
134.934440
70
0
0
VERTEX
8
Layer 1
10
120.084740
20
134.813670
70
0
0
VERTEX
8
Layer 1
10
120.084740
20
126.464680
70
0
0
VERTEX
8
Layer 1
10
120.084740
20
118.115700
70
0
0
VERTEX
8
Layer 1
10
154.629970
20
118.115700
70
0
0
VERTEX
8
Layer 1
10
189.175200
20
118.115700
70
0
0
VERTEX
8
Layer 1
10
189.175200
20
126.585620
70
0
0
SEQEND
8
Layer 1
0
POLYLINE
8
Layer 1
62
7
70
0
10
0.000000
20
0.000000
66
1
0
VERTEX
8
Layer 1
10
141.461980
20
123.045620
70
0
0
VERTEX
8
Layer 1
10
140.998102
20
123.438582
70
0
0
VERTEX
8
Layer 1
10
140.916916
20
123.982606
70
0
0
VERTEX
8
Layer 1
10
141.180605
20
124.464997
70
0
0
VERTEX
8
Layer 1
10
141.751350
20
124.673060
70
0
0
VERTEX
8
Layer 1
10
142.176777
20
124.604707
70
0
0
VERTEX
8
Layer 1
10
142.474631
20
124.406061
70
0
0
VERTEX
8
Layer 1
10
142.636378
20
124.086742
70
0
0
VERTEX
8
Layer 1
10
142.653480
20
123.656370
70
0
0
VERTEX
8
Layer 1
10
142.522935
20
123.292527
70
0
0
VERTEX
8
Layer 1
10
142.256844
20
123.057152
70
0
0
VERTEX
8
Layer 1
10
141.891195
20
122.968700
70
0
0
VERTEX
8
Layer 1
10
141.461980
20
123.045620
70
0
0
VERTEX
8
Layer 1
10
141.461980
20
123.045620
70
0
0
SEQEND
8
Layer 1
0
POLYLINE
8
Layer 1
62
7
70
0
10
0.000000
20
0.000000
66
1
0
VERTEX
8
Layer 1
10
133.314830
20
126.585620
70
0
0
VERTEX
8
Layer 1
10
133.314830
20
130.137520
70
0
0
VERTEX
8
Layer 1
10
134.204340
20
130.137520
70
0
0
VERTEX
8
Layer 1
10
135.093860
20
130.137520
70
0
0
VERTEX
8
Layer 1
10
135.327250
20
129.090170
70
0
0
VERTEX
8
Layer 1
10
135.560700
20
128.160653
70
0
0
VERTEX
8
Layer 1
10
135.746347
20
127.819220
70
0
0
VERTEX
8
Layer 1
10
135.933318
20
128.051477
70
0
0
VERTEX
8
Layer 1
10
136.170740
20
128.843030
70
0
0
VERTEX
8
Layer 1
10
136.509440
20
130.137520
70
0
0
VERTEX
8
Layer 1
10
137.392770
20
130.137520
70
0
0
VERTEX
8
Layer 1
10
138.276110
20
130.137520
70
0
0
VERTEX
8
Layer 1
10
138.276110
20
126.585620
70
0
0
VERTEX
8
Layer 1
10
138.276110
20
123.033720
70
0
0
VERTEX
8
Layer 1
10
137.632980
20
123.033720
70
0
0
VERTEX
8
Layer 1
10
136.989850
20
123.033720
70
0
0
VERTEX
8
Layer 1
10
136.971550
20
125.538260
70
0
0
VERTEX
8
Layer 1
10
136.953250
20
128.042810
70
0
0
VERTEX
8
Layer 1
10
136.532740
20
126.767770
70
0
0
VERTEX
8
Layer 1
10
136.128071
20
125.769361
70
0
0
VERTEX
8
Layer 1
10
135.761660
20
125.439390
70
0
0
VERTEX
8
Layer 1
10
135.569597
20
125.464149
70
0
0
VERTEX
8
Layer 1
10
135.409500
20
125.645041
70
0
0
VERTEX
8
Layer 1
10
135.052060
20
126.714430
70
0
0
VERTEX
8
Layer 1
10
134.693030
20
128.042810
70
0
0
VERTEX
8
Layer 1
10
134.641930
20
125.538260
70
0
0
VERTEX
8
Layer 1
10
134.590830
20
123.033720
70
0
0
VERTEX
8
Layer 1
10
133.952890
20
123.033720
70
0
0
VERTEX
8
Layer 1
10
133.314950
20
123.033720
70
0
0
VERTEX
8
Layer 1
10
133.314830
20
126.585620
70
0
0
SEQEND
8
Layer 1
0
POLYLINE
8
Layer 1
62
7
70
0
10
0.000000
20
0.000000
66
1
0
VERTEX
8
Layer 1
10
145.809910
20
123.580160
70
0
0
VERTEX
8
Layer 1
10
145.909426
20
124.042040
70
0
0
VERTEX
8
Layer 1
10
146.453040
20
124.126610
70
0
0
VERTEX
8
Layer 1
10
147.096170
20
124.126610
70
0
0
VERTEX
8
Layer 1
10
147.096170
20
126.585620
70
0
0
VERTEX
8
Layer 1
10
147.096170
20
129.044630
70
0
0
VERTEX
8
Layer 1
10
146.453040
20
129.044630
70
0
0
VERTEX
8
Layer 1
10
145.909441
20
129.129211
70
0
0
VERTEX
8
Layer 1
10
145.809910
20
129.591080
70
0
0
VERTEX
8
Layer 1
10
145.809910
20
130.137520
70
0
0
VERTEX
8
Layer 1
10
147.831170
20
130.137520
70
0
0
VERTEX
8
Layer 1
10
149.852440
20
130.137520
70
0
0
VERTEX
8
Layer 1
10
149.852440
20
129.591080
70
0
0
VERTEX
8
Layer 1
10
149.752886
20
129.129200
70
0
0
VERTEX
8
Layer 1
10
149.209310
20
129.044630
70
0
0
VERTEX
8
Layer 1
10
148.566180
20
129.044630
70
0
0
VERTEX
8
Layer 1
10
148.566180
20
126.585620
70
0
0
VERTEX
8
Layer 1
10
148.566180
20
124.126610
70
0
0
VERTEX
8
Layer 1
10
149.209310
20
124.126610
70
0
0
VERTEX
8
Layer 1
10
149.752905
20
124.042029
70
0
0
VERTEX
8
Layer 1
10
149.852440
20
123.580160
70
0
0
VERTEX
8
Layer 1
10
149.852440
20
123.033720
70
0
0
VERTEX
8
Layer 1
10
147.831170
20
123.033720
70
0
0
VERTEX
8
Layer 1
10
145.809910
20
123.033720
70
0
0
VERTEX
8
Layer 1
10
145.809910
20
123.580160
70
0
0
SEQEND
8
Layer 1
0
POLYLINE
8
Layer 1
62
7
70
0
10
0.000000
20
0.000000
66
1
0
VERTEX
8
Layer 1
10
153.196710
20
123.252300
70
0
0
VERTEX
8
Layer 1
10
152.976210
20
123.853390
70
0
0
VERTEX
8
Layer 1
10
153.218910
20
124.456534
70
0
0
VERTEX
8
Layer 1
10
153.894960
20
124.673060
70
0
0
VERTEX
8
Layer 1
10
154.571019
20
124.456534
70
0
0
VERTEX
8
Layer 1
10
154.813720
20
123.853390
70
0
0
VERTEX
8
Layer 1
10
154.571019
20
123.250246
70
0
0
VERTEX
8
Layer 1
10
153.894960
20
123.033720
70
0
0
VERTEX
8
Layer 1
10
153.196710
20
123.252300
70
0
0
VERTEX
8
Layer 1
10
153.196710
20
123.252300
70
0
0
SEQEND
8
Layer 1
0
POLYLINE
8
Layer 1
62
7
70
0
10
0.000000
20
0.000000
66
1
0
VERTEX
8
Layer 1
10
158.749380
20
123.210200
70
0
0
VERTEX
8
Layer 1
10
157.871306
20
123.958147
70
0
0
VERTEX
8
Layer 1
10
157.525542
20
124.459130
70
0
0
VERTEX
8
Layer 1
10
157.386240
20
124.869190
70
0
0
VERTEX
8
Layer 1
10
157.509654
20
125.146877
70
0
0
VERTEX
8
Layer 1
10
157.983430
20
125.218360
70
0
0
VERTEX
8
Layer 1
10
158.518210
20
125.108999
70
0
0
VERTEX
8
Layer 1
10
158.878780
20
124.697590
70
0
0
VERTEX
8
Layer 1
10
159.446933
20
124.194500
70
0
0
VERTEX
8
Layer 1
10
160.192493
20
124.056304
70
0
0
VERTEX
8
Layer 1
10
160.864796
20
124.269706
70
0
0
VERTEX
8
Layer 1
10
161.213180
20
124.821410
70
0
0
VERTEX
8
Layer 1
10
161.199702
20
125.211263
70
0
0
VERTEX
8
Layer 1
10
160.992916
20
125.522879
70
0
0
VERTEX
8
Layer 1
10
159.769910
20
126.117480
70
0
0
VERTEX
8
Layer 1
10
158.821666
20
126.519291
70
0
0
VERTEX
8
Layer 1
10
158.185343
20
126.947044
70
0
0
VERTEX
8
Layer 1
10
157.805576
20
127.451535
70
0
0
VERTEX
8
Layer 1
10
157.627000
20
128.083560
70
0
0
VERTEX
8
Layer 1
10
157.639571
20
128.827462
70
0
0
VERTEX
8
Layer 1
10
158.143670
20
129.466620
70
0
0
VERTEX
8
Layer 1
10
159.082575
20
130.068710
70
0
0
VERTEX
8
Layer 1
10
160.154119
20
130.254854
70
0
0
VERTEX
8
Layer 1
10
161.199140
20
130.028106
70
0
0
VERTEX
8
Layer 1
10
162.058480
20
129.391520
70
0
0
VERTEX
8
Layer 1
10
162.434271
20
128.854311
70
0
0
VERTEX
8
Layer 1
10
162.534034
20
128.459860
70
0
0
VERTEX
8
Layer 1
10
162.358792
20
128.216834
70
0
0
VERTEX
8
Layer 1
10
161.909570
20
128.133900
70
0
0
VERTEX
8
Layer 1
10
161.403094
20
128.213175
70
0
0
VERTEX
8
Layer 1
10
161.192350
20
128.496000
70
0
0
VERTEX
8
Layer 1
10
160.809795
20
128.964767
70
0
0
VERTEX
8
Layer 1
10
160.151119
20
129.138099
70
0
0
VERTEX
8
Layer 1
10
159.464008
20
129.008031
70
0
0
VERTEX
8
Layer 1
10
158.996150
20
128.566600
70
0
0
VERTEX
8
Layer 1
10
158.921975
20
128.148140
70
0
0
VERTEX
8
Layer 1
10
159.127491
20
127.784072
70
0
0
VERTEX
8
Layer 1
10
159.631712
20
127.455851
70
0
0
VERTEX
8
Layer 1
10
160.453650
20
127.144930
70
0
0
VERTEX
8
Layer 1
10
161.233985
20
126.818878
70
0
0
VERTEX
8
Layer 1
10
161.876211
20
126.387489
70
0
0
VERTEX
8
Layer 1
10
162.335402
20
125.888703
70
0
0
VERTEX
8
Layer 1
10
162.566630
20
125.360460
70
0
0
VERTEX
8
Layer 1
10
162.587068
20
124.785310
70
0
0
VERTEX
8
Layer 1
10
162.442701
20
124.232121
70
0
0
VERTEX
8
Layer 1
10
162.154457
20
123.750927
70
0
0
VERTEX
8
Layer 1
10
161.743260
20
123.391760
70
0
0
VERTEX
8
Layer 1
10
161.115459
20
123.162684
70
0
0
VERTEX
8
Layer 1
10
160.287971
20
123.048832
70
0
0
VERTEX
8
Layer 1
10
159.439658
20
123.061052
70
0
0
VERTEX
8
Layer 1
10
158.749380
20
123.210190
70
0
0
VERTEX
8
Layer 1
10
158.749380
20
123.210200
70
0
0
SEQEND
8
Layer 1
0
POLYLINE
8
Layer 1
62
7
70
0
10
0.000000
20
0.000000
66
1
0
VERTEX
8
Layer 1
10
165.324290
20
123.252300
70
0
0
VERTEX
8
Layer 1
10
165.103790
20
123.853390
70
0
0
VERTEX
8
Layer 1
10
165.346491
20
124.456534
70
0
0
VERTEX
8
Layer 1
10
166.022550
20
124.673060
70
0
0
VERTEX
8
Layer 1
10
166.698600
20
124.456534
70
0
0
VERTEX
8
Layer 1
10
166.941300
20
123.853390
70
0
0
VERTEX
8
Layer 1
10
166.698600
20
123.250246
70
0
0
VERTEX
8
Layer 1
10
166.022550
20
123.033720
70
0
0
VERTEX
8
Layer 1
10
165.324290
20
123.252300
70
0
0
VERTEX
8
Layer 1
10
165.324290
20
123.252300
70
0
0
SEQEND
8
Layer 1
0
POLYLINE
8
Layer 1
62
7
70
0
10
0.000000
20
0.000000
66
1
0
VERTEX
8
Layer 1
10
169.697570
20
126.585620
70
0
0
VERTEX
8
Layer 1
10
169.697570
20
130.137520
70
0
0
VERTEX
8
Layer 1
10
170.432580
20
130.137520
70
0
0
VERTEX
8
Layer 1
10
171.167580
20
130.137520
70
0
0
VERTEX
8
Layer 1
10
171.167580
20
127.132070
70
0
0
VERTEX
8
Layer 1
10
171.167580
20
124.126610
70
0
0
VERTEX
8
Layer 1
10
172.821340
20
124.126610
70
0
0
VERTEX
8
Layer 1
10
174.475100
20
124.126610
70
0
0
VERTEX
8
Layer 1
10
174.475100
20
123.580160
70
0
0
VERTEX
8
Layer 1
10
174.475100
20
123.033720
70
0
0
VERTEX
8
Layer 1
10
172.086340
20
123.033720
70
0
0
VERTEX
8
Layer 1
10
169.697570
20
123.033720
70
0
0
VERTEX
8
Layer 1
10
169.697570
20
126.585620
70
0
0
SEQEND
8
Layer 1
0
POLYLINE
8
Layer 1
62
7
70
0
10
0.000000
20
0.000000
66
1
0
VERTEX
8
Layer 1
10
200.528180
20
123.031950
70
0
0
VERTEX
8
Layer 1
10
207.143230
20
126.585240
70
0
0
VERTEX
8
Layer 1
10
191.865050
20
134.615690
70
0
0
VERTEX
8
Layer 1
10
191.701484
20
134.453637
70
0
0
VERTEX
8
Layer 1
10
191.610935
20
133.428302
70
0
0
VERTEX
8
Layer 1
10
191.563970
20
126.498360
70
0
0
VERTEX
8
Layer 1
10
191.563970
20
118.266490
70
0
0
VERTEX
8
Layer 1
10
192.712410
20
118.893860
70
0
0
VERTEX
8
Layer 1
10
200.528180
20
123.031950
70
0
0
VERTEX
8
Layer 1
10
200.528180
20
123.031950
70
0
0
SEQEND
8
Layer 1
0
POLYLINE
8
Layer 1
62
7
70
0
10
0.000000
20
0.000000
66
1
0
VERTEX
8
Layer 1
10
132.396070
20
137.510640
70
0
0
VERTEX
8
Layer 1
10
128.618690
20
142.519740
70
0
0
VERTEX
8
Layer 1
10
124.841310
20
147.441660
70
0
0
VERTEX
8
Layer 1
10
118.409650
20
147.441660
70
0
0
VERTEX
8
Layer 1
10
113.310660
20
147.395462
70
0
0
VERTEX
8
Layer 1
10
112.335890
20
147.325653
70
0
0
VERTEX
8
Layer 1
10
112.114430
20
147.213980
70
0
0
VERTEX
8
Layer 1
10
118.098640
20
139.108350
70
0
0
VERTEX
8
Layer 1
10
119.352730
20
137.423480
70
0
0
VERTEX
8
Layer 1
10
125.874400
20
137.423480
70
0
0
VERTEX
8
Layer 1
10
132.396070
20
137.510680
70
0
0
VERTEX
8
Layer 1
10
132.396070
20
137.510640
70
0
0
SEQEND
8
Layer 1
0
POLYLINE
8
Layer 1
62
7
70
0
10
0.000000
20
0.000000
66
1
0
VERTEX
8
Layer 1
10
94.054182
20
171.727820
70
0
0
VERTEX
8
Layer 1
10
94.523604
20
171.985990
70
0
0
VERTEX
8
Layer 1
10
94.654018
20
172.227694
70
0
0
VERTEX
8
Layer 1
10
94.443429
20
172.464843
70
0
0
VERTEX
8
Layer 1
10
93.889843
20
172.709350
70
0
0
VERTEX
8
Layer 1
10
92.339012
20
173.019112
70
0
0
VERTEX
8
Layer 1
10
90.506587
20
173.071305
70
0
0
VERTEX
8
Layer 1
10
88.791495
20
172.881413
70
0
0
VERTEX
8
Layer 1
10
87.592663
20
172.464920
70
0
0
VERTEX
8
Layer 1
10
87.251151
20
172.182829
70
0
0
VERTEX
8
Layer 1
10
87.486516
20
171.971770
70
0
0
VERTEX
8
Layer 1
10
88.844059
20
171.546452
70
0
0
VERTEX
8
Layer 1
10
90.703259
20
171.352429
70
0
0
VERTEX
8
Layer 1
10
92.596003
20
171.407089
70
0
0
VERTEX
8
Layer 1
10
94.054182
20
171.727820
70
0
0
VERTEX
8
Layer 1
10
94.054182
20
171.727820
70
0
0
SEQEND
8
Layer 1
 0 
ENDSEC
 0 
EOF